<?xml version="1.0" encoding="utf-8"?>
<!-- Generator: Adobe Illustrator 16.0.0, SVG Export Plug-In . SVG Version: 6.00 Build 0)  -->
<!DOCTYPE svg PUBLIC "-//W3C//DTD SVG 1.1//EN" "http://www.w3.org/Graphics/SVG/1.1/DTD/svg11.dtd">
<svg version="1.1" id="Layer_1" xmlns="http://www.w3.org/2000/svg" xmlns:xlink="http://www.w3.org/1999/xlink" x="0px" y="0px"
	 width="688.465px" height="674px" viewBox="0 0 688.465 674" enable-background="new 0 0 688.465 674" xml:space="preserve">
<rect width="688.465" height="674"/>
<g>
	<path fill="#FFFFFF" stroke="#000000" stroke-miterlimit="10" d="M458.34,215.072c-35.262-8.816-72.115-13.227-110.531-13.227
		c-51.54,0-90.309,4.641-116.301,13.906c-26,9.269-38.991,21.816-38.991,37.633c0,16.731,14.236,28.478,42.723,35.26
		c11.745,2.717,24.411,4.746,37.973,6.104c13.561,1.358,28.142,2.373,43.737,3.052c15.599,0.679,32.095,1.359,49.506,2.038
		c17.396,0.674,35.6,1.924,54.586,3.727c38.42,3.627,71.885,8.816,100.365,15.6c28.479,6.783,52.213,15.93,71.199,27.463
		c18.986,11.528,33.115,25.887,42.385,43.059c9.26,17.188,13.9,37.755,13.9,61.708c0,53.351-24.307,94.94-72.898,124.777
		c-48.6,29.839-119.922,44.754-213.947,44.754c-61.483,0-118.225-7.235-170.208-21.696C139.841,584.765,90.34,561.249,43.33,528.702
		l65.095-80.021c42.492,25.771,84.767,44.875,126.815,57.304c42.038,12.443,86.12,18.646,132.229,18.646
		c49.729,0,87.928-6.32,114.602-18.981c26.67-12.65,40.012-29.16,40.012-49.51c0-10.849-3.846-19.209-11.529-25.085
		c-7.689-5.869-18.764-10.397-33.227-13.562c-14.477-3.161-32.105-5.193-52.895-6.108c-20.797-0.897-44.312-2.029-70.523-3.388
		c-47.926-1.802-89.744-5.759-125.452-11.867c-35.717-6.105-65.44-14.922-89.176-26.449c-23.732-11.524-41.478-25.986-53.232-43.397
		c-11.76-17.397-17.632-38.313-17.632-62.723c0-48.37,23.284-86.686,69.85-114.942c46.558-28.25,114.603-42.383,204.114-42.383
		c119.795,0,216.09,23.963,288.881,71.879l-67.814,78.662C528.629,237.785,493.6,223.883,458.34,215.072z"/>
</g>
<rect x="234.393" y="257" display="none" fill="#FFFFFF" width="258" height="117"/>
<g>
	<path fill="#FFFFFF" stroke="#000000" stroke-width="20" stroke-miterlimit="10" d="M177.702,558.659v-6.085
		c13.079,0,16.097-2.026,16.097-11.668V207.078c0-9.64-3.018-11.672-16.097-11.672v-6.092h234.879
		c73.936,0,123.225,39.58,123.225,104.52c0,60.877-39.732,99.436-98.579,99.944l90.525,148.136
		c5.042,8.125,8.559,10.149,20.123,10.661v6.085h-95.058v-6.085c13.578-0.512,17.101-2.536,17.101-8.623
		c0-5.591-3.016-9.642-12.069-24.862l-72.931-119.736H245.097v141.554c0,9.642,3.022,11.668,16.098,11.668v6.085H177.702z
		 M245.097,354.711h177.546c31.684,0,61.859-15.22,61.859-63.927c0-29.929-23.635-56.821-71.921-56.821H245.097V354.711z"/>
</g>
<polygon stroke="#000000" stroke-width="8" stroke-miterlimit="10" points="161.393,81.785 352.861,161.975 544.33,81.785 "/>
<polygon fill="#FFFFFF" stroke="#000000" stroke-width="2" stroke-miterlimit="10" points="177.691,76.149 351.178,148.812 
	524.662,76.149 "/>
<polygon stroke="#000000" stroke-width="2" stroke-miterlimit="10" points="178.358,38.483 351.845,111.145 525.329,38.483 "/>
</svg>
